<svg width="48" height="48" viewBox="0 0 48 48" fill="none" xmlns="http://www.w3.org/2000/svg">
<path d="M24 21L22.5138 20.7973C22.4552 21.2265 22.5851 21.6601 22.87 21.9864C23.1548 22.3127 23.5668 22.5 24 22.5V21ZM26.25 4.5L27.7362 4.70267C27.8316 4.00376 27.427 3.33287 26.7644 3.09097C26.1018 2.84906 25.3602 3.1015 24.9828 3.69742L26.25 4.5ZM12 27L10.7328 26.1974C10.4402 26.6594 10.4222 27.2441 10.6859 27.7232C10.9496 28.2024 11.4531 28.5 12 28.5V27ZM24 27L25.4862 27.2027C25.5448 26.7735 25.4149 26.3399 25.13 26.0136C24.8452 25.6873 24.4332 25.5 24 25.5V27ZM21.75 43.5L20.2638 43.2973C20.1684 43.9962 20.573 44.6671 21.2356 44.909C21.8982 45.1509 22.6398 44.8985 23.0172 44.3026L21.75 43.5ZM36 21L37.2672 21.8026C37.5598 21.3406 37.5778 20.7559 37.3141 20.2768C37.0504 19.7976 36.5469 19.5 36 19.5V21ZM25.4862 21.2027L27.7362 4.70267L24.7638 4.29733L22.5138 20.7973L25.4862 21.2027ZM24.9828 3.69742L10.7328 26.1974L13.2672 27.8026L27.5172 5.30258L24.9828 3.69742ZM12 28.5H24V25.5H12V28.5ZM22.5138 26.7973L20.2638 43.2973L23.2362 43.7027L25.4862 27.2027L22.5138 26.7973ZM23.0172 44.3026L37.2672 21.8026L34.7328 20.1974L20.4828 42.6974L23.0172 44.3026ZM36 19.5H24V22.5H36V19.5Z" fill="#E2000F"/>
</svg>
