<svg width="48" height="48" viewBox="0 0 48 48" fill="none" xmlns="http://www.w3.org/2000/svg">
<rect width="48" height="48" fill="white"/>
<circle cx="24.0003" cy="24" r="7.5" transform="rotate(30 24.0003 24)" stroke="#E31E24" stroke-width="3"/>
<path d="M9.76923 10.5878C8.8385 11.73 7.78655 13.0822 7.05927 14.3419C6.21079 15.8115 5.68698 17.1886 5.16317 18.5658C7.31902 19.5305 8.86881 21.545 8.67401 24.2318C8.60042 26.7087 7.06362 28.9006 4.87314 29.8754C5.61341 32.8221 7.20649 35.7013 9.36667 38.0682C11.2714 36.6486 13.9511 36.2362 16.1892 37.5284C18.4273 38.8206 19.41 41.3474 19.1329 43.7068C22.2628 44.3941 25.3494 44.2167 28.4749 43.5019C28.2239 41.1175 29.3537 38.6906 31.462 37.3884C33.5702 36.0863 36.4144 36.3287 38.1243 37.5959C39.0551 36.4537 40.107 35.1015 40.8343 33.8419C41.6828 32.3723 42.2066 30.9951 42.7304 29.618" stroke="#E31E24" stroke-width="3" stroke-miterlimit="10" stroke-linecap="round" stroke-linejoin="round"/>
<path d="M5.26923 18.382C5.79304 17.0049 6.43806 15.4178 7.16533 14.1581C8.01382 12.6885 8.94456 11.5463 9.87529 10.4041C11.7887 11.7887 14.3082 12.1237 16.5376 10.6116C18.6459 9.3094 19.7757 6.88253 19.5247 4.49814C22.4467 3.66586 25.7368 3.60588 28.8667 4.29321C28.5896 6.6526 29.5723 9.17945 31.8104 10.4716C34.0485 11.7638 36.7282 11.3514 38.6329 9.93176C40.7931 12.2987 42.1827 15.0604 43.1265 18.1247C40.936 19.0994 39.3992 21.2913 39.3256 23.7682C39.252 26.245 40.884 28.5869 42.8364 29.4342C42.3126 30.8114 41.6676 32.3985 40.9403 33.6581C40.0918 35.1277 39.1611 36.27 38.2304 37.4122" stroke="#E31E24" stroke-width="3" stroke-miterlimit="10" stroke-linecap="round" stroke-linejoin="round"/>
</svg>
