<svg width="39" height="45" viewBox="0 0 39 45" fill="none" xmlns="http://www.w3.org/2000/svg">
<path d="M7.49197 35.2426H24.8186" stroke="#E31E24" stroke-width="2.25999" stroke-linecap="round" stroke-linejoin="round"/>
<path d="M7.49197 29.5171H24.8186" stroke="#E31E24" stroke-width="2.25999" stroke-linecap="round" stroke-linejoin="round"/>
<path d="M7.49197 23.7844H24.8186" stroke="#E31E24" stroke-width="2.25999" stroke-linecap="round" stroke-linejoin="round"/>
<path d="M31 20.5V40.1093C31 40.5132 30.9261 40.8934 30.793 41.2339C30.5859 41.7487 30.2458 42.1922 29.8169 42.509C29.3807 42.8178 28.8631 43 28.3011 43H4.69888C3.20525 43 2 41.7091 2 40.1093V4.89067C2 4.48677 2.07394 4.10663 2.21443 3.76608C2.41407 3.24338 2.7616 2.8078 3.19046 2.49102C3.61933 2.18215 4.14431 2 4.69888 2H28.3011C29.7947 2 31 2.90023 31 4.5V4.91443" stroke="#E31E24" stroke-width="2.25999" stroke-linecap="round" stroke-linejoin="round"/>
<path d="M30.4986 19.7164C34.3554 19.7164 37.482 16.5898 37.482 12.733C37.482 8.8762 34.3554 5.74963 30.4986 5.74963C26.6418 5.74963 23.5152 8.8762 23.5152 12.733C23.5152 16.5898 26.6418 19.7164 30.4986 19.7164Z" stroke="#E31E24" stroke-width="2.25999" stroke-linecap="round" stroke-linejoin="round"/>
<path d="M29.6624 14.4431L33.1427 11.0004" stroke="#E31E24" stroke-width="2.25999" stroke-linecap="round" stroke-linejoin="round"/>
<path d="M29.5946 14.4656L27.8469 12.6953" stroke="#E31E24" stroke-width="2.25999" stroke-linecap="round" stroke-linejoin="round"/>
</svg>
